<svg width="85" height="89" viewBox="0 0 85 89" fill="none" xmlns="http://www.w3.org/2000/svg">
  <path d="M47.8125 12L54.5 18.6875V33.3125C54.5 34.0625 54.2292 34.7083 53.6875 35.25C53.1875 35.75 52.5625 36 51.8125 36H33.1875C32.4375 36 31.7917 35.75 31.25 35.25C30.75 34.7083 30.5 34.0625 30.5 33.3125V14.6875C30.5 13.9375 30.75 13.3125 31.25 12.8125C31.7917 12.2708 32.4375 12 33.1875 12H47.8125ZM35.8125 17.3125V20H42.5V17.3125H35.8125ZM49.1875 30.6875V28H35.8125V30.6875H49.1875ZM49.1875 25.3125V22.6875H35.8125V25.3125H49.1875ZM46.5 20H51.8125L46.5 14.6875V20Z" fill="white"/>
</svg>
