<svg width="85" height="89" viewBox="0 0 85 89" fill="none" xmlns="http://www.w3.org/2000/svg">
<path d="M38 32.375C39.5833 33.2083 41.0833 33.625 42.5 33.625C43.9167 33.625 45.3958 33.2083 46.9375 32.375C48.5208 31.5417 49.7083 30.5208 50.5 29.3125C50.4583 28.1458 49.5208 27.1667 47.6875 26.375C45.8542 25.5833 44.125 25.1875 42.5 25.1875C40.875 25.1875 39.1458 25.5833 37.3125 26.375C35.4792 27.125 34.5417 28.1042 34.5 29.3125C35.2917 30.5208 36.4583 31.5417 38 32.375ZM45.3125 15.875C44.5208 15.0833 43.5833 14.6875 42.5 14.6875C41.4167 14.6875 40.4792 15.0833 39.6875 15.875C38.8958 16.6667 38.5 17.6042 38.5 18.6875C38.5 19.7708 38.8958 20.7083 39.6875 21.5C40.4792 22.2917 41.4167 22.6875 42.5 22.6875C43.5833 22.6875 44.5208 22.2917 45.3125 21.5C46.1042 20.7083 46.5 19.7708 46.5 18.6875C46.5 17.6042 46.1042 16.6667 45.3125 15.875ZM33.0625 14.625C35.6875 12 38.8333 10.6875 42.5 10.6875C46.1667 10.6875 49.2917 12 51.875 14.625C54.5 17.2083 55.8125 20.3333 55.8125 24C55.8125 27.6667 54.5 30.8125 51.875 33.4375C49.2917 36.0208 46.1667 37.3125 42.5 37.3125C38.8333 37.3125 35.6875 36.0208 33.0625 33.4375C30.4792 30.8125 29.1875 27.6667 29.1875 24C29.1875 20.3333 30.4792 17.2083 33.0625 14.625Z" fill="#888888"/>
</svg>
