<svg width="145" height="89" viewBox="0 0 145 89" fill="none" xmlns="http://www.w3.org/2000/svg">
<path d="M73.8125 20V17.3125H71.1875V20H73.8125ZM73.8125 30.6875V22.6875H71.1875V30.6875H73.8125ZM63.0625 14.625C65.6875 12 68.8333 10.6875 72.5 10.6875C76.1667 10.6875 79.2917 12 81.875 14.625C84.5 17.2083 85.8125 20.3333 85.8125 24C85.8125 27.6667 84.5 30.8125 81.875 33.4375C79.2917 36.0208 76.1667 37.3125 72.5 37.3125C68.8333 37.3125 65.6875 36.0208 63.0625 33.4375C60.4792 30.8125 59.1875 27.6667 59.1875 24C59.1875 20.3333 60.4792 17.2083 63.0625 14.625Z" fill="#888888"/>
</svg>
